<?xml version="1.0" standalone="no"?>
<!DOCTYPE svg PUBLIC "-//W3C//DTD SVG 20010904//EN"
 "http://www.w3.org/TR/2001/REC-SVG-20010904/DTD/svg10.dtd">
<svg version="1.0" xmlns="http://www.w3.org/2000/svg"
 width="220.000000pt" height="220.000000pt" viewBox="0 0 220.000000 220.000000"
 preserveAspectRatio="xMidYMid meet">
<metadata>
Created by potrace 1.14, written by Peter Selinger 2001-2017
</metadata>
<g transform="translate(0.000000,220.000000) scale(0.100000,-0.100000)"
fill="#000000" stroke="none">
<path d="M638 1548 c-10 -10 -18 -15 -18 -12 0 4 -9 -5 -20 -19 -11 -14 -20
-28 -20 -31 0 -3 -16 -29 -35 -56 -19 -27 -35 -54 -35 -60 0 -5 -5 -10 -12
-10 -6 0 -9 -3 -5 -6 6 -6 1 -13 -33 -53 -21 -25 -38 -52 -53 -86 -8 -16 -21
-36 -30 -44 -9 -7 -15 -17 -12 -21 3 -4 -2 -10 -10 -14 -8 -3 -15 -10 -15 -16
0 -5 -23 -41 -50 -80 -28 -39 -50 -74 -50 -79 0 -5 -7 -12 -16 -15 -8 -3 -12
-10 -9 -16 3 -5 1 -10 -4 -10 -6 0 -10 -3 -9 -7 1 -5 -15 -33 -37 -63 -22 -30
-39 -57 -38 -61 1 -4 -7 -15 -17 -24 -11 -10 -20 -22 -20 -27 0 -5 -14 -27
-31 -48 -52 -64 -42 -70 123 -70 160 0 157 -1 192 77 30 67 39 71 148 70 61 0
99 -4 101 -11 2 -6 3 -36 3 -66 -1 -30 4 -58 9 -62 6 -4 60 -8 121 -8 88 0
114 3 124 15 19 23 21 887 2 912 -7 10 -15 17 -17 16 -3 -2 -6 -3 -7 -2 -2 1
-48 2 -103 2 -83 2 -103 -1 -117 -15z m-10 -515 c-3 -42 -12 -53 -45 -53 -30
0 -29 19 3 58 35 42 45 40 42 -5z"/>
<path d="M1309 1534 c-11 -5 -17 -13 -14 -16 9 -9 -14 -50 -24 -43 -5 2 -8
-13 -8 -35 0 -21 3 -37 6 -35 4 2 13 -2 22 -8 12 -9 16 -31 15 -93 0 -96 10
-112 75 -115 74 -3 75 -2 73 34 -1 17 -2 35 -3 39 -1 8 -22 5 -37 -5 -16 -10
-24 15 -24 79 0 54 3 58 42 55 9 -1 20 3 24 10 5 8 3 9 -6 4 -10 -6 -11 -4 -4
6 22 36 7 70 -27 64 -20 -4 -23 0 -33 45 -6 28 -40 34 -77 14z"/>
<path d="M970 1364 c0 -111 0 -113 29 -145 25 -27 36 -32 71 -31 23 1 49 6 57
11 10 5 25 4 40 -4 13 -7 33 -11 44 -8 18 5 19 15 19 138 0 139 -5 158 -45
150 -11 -2 -25 -4 -31 -4 -6 -1 -10 -32 -9 -83 1 -74 -2 -85 -23 -106 -18 -17
-27 -20 -43 -12 -21 12 -21 8 -24 110 -1 41 -3 80 -4 85 0 6 -19 11 -41 11
l-40 0 0 -112z"/>
<path d="M1537 1460 c-8 -8 -23 -22 -34 -31 -14 -12 -22 -34 -27 -78 -8 -71
10 -121 54 -153 35 -25 109 -29 153 -8 20 10 40 15 44 11 4 -3 5 -2 1 2 -3 5
2 17 12 27 15 15 18 32 16 97 -3 99 -17 123 -81 138 -5 2 -14 4 -20 5 -37 9
-106 3 -118 -10z m107 -73 c14 -12 20 -30 21 -60 0 -70 -47 -98 -85 -50 -24
31 -21 86 8 114 20 20 30 20 56 -4z"/>
<path d="M979 1034 c-10 -12 -10 -387 1 -397 12 -11 66 -14 76 -3 12 13 13
390 1 403 -13 13 -66 11 -78 -3z"/>
<path d="M1440 1041 c-13 -5 -15 -36 -15 -203 0 -108 2 -199 5 -201 6 -6 37
-10 63 -8 14 1 17 10 17 51 0 28 4 50 9 50 5 0 18 -19 30 -42 12 -24 21 -38
21 -33 0 6 7 2 15 -8 16 -22 82 -29 89 -10 4 10 10 10 29 0 15 -8 51 -12 88
-10 56 2 67 6 86 29 25 32 28 86 5 112 -23 26 -80 54 -94 46 -7 -4 -8 -3 -4 4
4 7 2 12 -5 12 -8 0 -8 4 1 15 7 9 21 13 31 10 34 -11 59 -14 61 -7 0 4 2 19
3 35 2 30 5 29 -87 31 -54 1 -66 -2 -81 -21 -24 -29 -29 -79 -11 -97 8 -8 14
-18 14 -23 0 -9 48 -33 66 -33 19 0 25 -30 9 -46 -11 -11 -15 -12 -15 -3 0 7
-3 10 -6 6 -4 -3 -19 0 -35 9 -18 9 -29 11 -29 4 0 -6 -4 -9 -9 -5 -6 3 -8 -4
-6 -15 6 -34 -19 -23 -40 18 -11 20 -22 39 -25 42 -3 3 -10 16 -16 29 -11 26
1 48 49 90 17 16 23 40 10 42 -65 9 -85 4 -112 -28 -15 -18 -31 -33 -35 -33
-3 0 -6 39 -6 88 0 48 -4 92 -8 97 -8 12 -40 15 -62 6z"/>
<path d="M1174 917 c-22 -12 -48 -40 -54 -58 -13 -41 -10 -146 4 -174 9 -16
16 -26 16 -21 0 5 8 0 18 -11 9 -11 24 -20 32 -21 73 -6 133 -6 137 1 3 5 11
6 18 3 15 -5 22 8 21 44 -1 24 -4 25 -63 25 -35 0 -63 -4 -63 -8 0 -5 -7 -1
-16 8 -30 29 -11 42 62 41 44 -1 72 3 81 12 16 16 11 114 -6 120 -6 2 -11 10
-11 18 0 9 -4 13 -9 9 -5 -3 -12 -1 -16 5 -4 6 -11 8 -16 5 -5 -4 -9 -2 -9 2
0 12 -105 12 -126 0z m106 -89 c0 -5 -6 -8 -12 -5 -7 2 -20 0 -30 -4 -23 -12
-32 16 -11 36 14 15 17 14 34 -1 11 -9 19 -21 19 -26z"/>
<path d="M1975 912 c-26 -4 -48 -38 -40 -62 5 -15 13 -18 38 -15 74 12 87 12
96 1 6 -7 6 -17 1 -26 -9 -13 -10 -13 -10 0 0 13 -1 13 -10 0 -5 -8 -10 -11
-10 -6 0 5 -7 3 -15 -4 -12 -10 -15 -10 -15 1 0 10 -3 10 -12 1 -7 -7 -18 -12
-26 -12 -22 0 -43 -27 -47 -62 -6 -49 3 -72 35 -91 29 -18 100 -23 100 -8 0 4
17 5 38 2 70 -13 70 -12 70 107 0 149 -15 173 -111 176 -34 1 -71 0 -82 -2z
m106 -183 c6 -12 7 -19 1 -15 -5 3 -12 -1 -16 -9 -6 -16 -41 -20 -50 -6 -9 14
4 39 22 44 29 8 31 7 43 -14z"/>
</g>
</svg>
